# xmcd CD database file
#
# Track frame offsets:
#	150
#	14345
#	26437
#	46935
#	60360
#	76127
#	92510
#	109205
#	125240
#	140557
#	163940
#
# Disc length: 2554 seconds
#
# Revision: 0
# Processed by: cddbd v1.5.1PL0 Copyright (c) Steve Scherf et al.
# Submitted via: CDex 1.51
#
DISCID=8a09f80b
DTITLE=Richie Kotzen - Get Up
DYEAR=2004
DGENRE=Hard Rock
TTITLE0=Losin My Mind
TTITLE1=Fantasy
TTITLE2=Remember
TTITLE3=Get Up
TTITLE4=So Cold
TTITLE5=Such A Shame
TTITLE6=Made For Tonight
TTITLE7=Still
TTITLE8=Never Be The Same
TTITLE9=Special
TTITLE10=Shapes Of Things
EXTD=YEAR: 2004
EXTT0=
EXTT1=
EXTT2=
EXTT3=
EXTT4=
EXTT5=
EXTT6=
EXTT7=
EXTT8=
EXTT9=
EXTT10=
PLAYORDER=
